<svg width="470" height="434" version="1.1" xmlns="http://www.w3.org/2000/svg" desc="Created with imagetracer.js version 1.2.6" ><path fill="rgb(0,0,0)" stroke="rgb(0,0,0)" stroke-width="1" opacity="0" d="M 0 0 L 470 0 L 470 434 L 0 434 L 0 0 Z M 216 47 L 214 48 Q 208 51 206 59 L 206 88 L 199 95 L 62 95 L 58 97 L 53 104 Q 51 113 55 118 L 62 122 L 104 122 L 105 124 L 105 182 L 99 195 L 93 203 L 64 254 Q 59 257 49 256 L 44 260 Q 43 276 51 283 L 61 291 L 73 296 Q 77 295 79 297 L 152 296 L 160 294 L 171 287 L 180 276 Q 183 270 181 260 L 178 256 L 167 256 L 165 255 L 123 185 L 123 123 L 131 123 L 132 122 L 199 122 L 201 123 L 206 130 L 206 325 L 168 325 L 165 327 L 160 335 L 160 353 L 162 359 L 170 363 L 273 363 L 276 362 L 281 355 L 281 336 L 279 331 L 274 325 Q 268 327 267 324 Q 262 323 261 325 L 237 325 L 234 323 L 234 133 L 235 130 L 244 122 L 314 122 L 320 125 L 320 178 L 319 183 L 313 196 L 310 199 L 280 252 L 277 255 L 262 257 L 259 260 L 258 264 Q 260 280 270 288 L 281 294 L 295 297 Q 300 299 302 296 L 366 296 L 374 294 L 383 289 L 395 276 L 398 268 Q 399 261 397 259 L 393 256 L 382 256 L 380 255 L 338 185 Q 335 177 337 165 L 336 164 L 336 126 L 339 123 L 343 122 L 378 122 L 385 119 L 389 113 Q 390 105 387 101 L 384 97 L 379 95 L 243 95 L 238 91 L 234 86 L 234 56 L 233 54 L 226 47 L 216 47 Z " /><path fill="rgb(0,0,0)" stroke="rgb(0,0,0)" stroke-width="1" opacity="0" d="M 113.5 205 L 116 206.5 L 143 255 L 136.5 256 L 120.5 256 Q 119 253.5 113.5 255 L 112.5 256 L 90.5 256 L 85 255 L 85 252.5 L 113.5 205 Z " /><path fill="rgb(0,0,0)" stroke="rgb(0,0,0)" stroke-width="1" opacity="0" d="M 327 205 L 330 206.5 L 357 255 L 350.5 255 L 349.5 256 L 330.5 256 Q 329.3 253.7 324.5 255 L 321.5 256 Q 319.7 253.3 313.5 255 Q 311.7 257.8 305.5 256 L 300 255 L 301 250.5 L 304 247.5 Q 311.5 229 323 214.5 L 327 205 Z " /><path fill="rgb(135,144,157)" stroke="rgb(135,144,157)" stroke-width="1" opacity="0.9647058823529412" d="M 215.5 83 L 225.5 83 L 232 86 L 232 88.5 L 247 103.5 L 247 113.5 L 242.5 119 L 231 129.5 L 229.5 132 L 211.5 132 L 210 130.5 L 199.5 119 L 197 117.5 Q 191.9 114.1 194 103.5 L 209 88.5 L 209 86 L 215.5 83 Z M 215 87 Q 206 91 201 99 Q 202 101 199 100 L 198 104 L 199 117 L 211 128 L 218 131 Q 226 132 231 128 L 242 117 L 243 113 L 243 104 L 242 103 L 242 100 Q 239 101 240 99 Q 235 91 227 87 L 215 87 Z " /><path fill="rgb(135,144,157)" stroke="rgb(135,144,157)" stroke-width="1" opacity="0.9647058823529412" d="M 63.5 258 L 81.5 258 L 82.5 259 L 145.5 259 L 146.5 258 L 164.5 258 L 165.5 259 L 176.5 259 L 180 261.5 L 179 272.5 L 168.5 286 L 152.5 294 L 100.5 294 L 100.5 293 L 148.5 293 L 158.5 291 L 169 285 L 170.5 282 Q 172.8 282.8 172 280.5 L 178 271.5 L 179 262.5 L 177.5 261 L 168.5 261 L 167.5 260 L 60.5 260 L 59.5 261 L 48.5 261 L 47 262.5 L 48 271.5 L 51 275.5 L 51 278 Q 53.7 276.9 53 279.5 L 67.5 291 L 71.5 291 L 80.5 294 L 90 294.5 L 80.5 295 Q 79.3 292.8 74.5 294 L 71.5 292 L 67.5 292 Q 58.7 288.3 53 281.5 L 47 272.5 L 46 261.5 L 48.5 259 L 62.5 259 L 63.5 258 Z " /><path fill="rgb(135,144,157)" stroke="rgb(135,144,157)" stroke-width="1" opacity="0.9647058823529412" d="M 278.5 258 L 296.5 258 L 297.5 259 L 360.5 259 L 361.5 258 L 378.5 258 L 379.5 259 L 391.5 259 L 395 261.5 L 394 272.5 L 383.5 286 L 373.5 292 Q 367.8 291.3 365.5 294 L 299.5 294 L 299.5 293 L 364.5 293 Q 367.4 290.4 373.5 291 L 387 280.5 L 388.5 278 Q 391.1 278.8 390 275.5 Q 394.8 271.8 394 262.5 L 392.5 261 L 382.5 261 L 381.5 260 L 276.5 260 L 275.5 261 L 263.5 261 L 262 262.5 L 263 271.5 L 269.5 282 L 272 283.5 Q 271.3 285.8 273.5 285 L 282.5 291 L 297 293.5 L 288.5 294 L 276.5 289 L 267 280.5 L 262 272.5 L 261 261.5 L 263.5 259 L 277.5 259 L 278.5 258 Z " /><path fill="rgb(105,115,129)" stroke="rgb(105,115,129)" stroke-width="1" opacity="0.996078431372549" d="M 214.5 87 L 226.5 87 Q 235.3 90.7 240 98.5 Q 239.3 101.1 242 100 L 242 102.5 L 243 103.5 L 243 112.5 L 242 116.5 L 230.5 128 Q 226.4 131.9 217.5 131 L 210.5 128 L 199 116.5 L 198 103.5 L 199 100 Q 201.7 101.1 201 98.5 Q 205.7 90.7 214.5 87 Z M 218 88 L 209 91 L 208 94 Q 205 93 206 96 L 203 97 L 200 103 L 200 115 L 203 120 L 206 122 Q 205 124 208 123 L 209 126 Q 214 126 218 130 L 224 130 Q 227 126 232 126 L 234 123 Q 236 124 235 122 L 238 120 L 241 115 L 241 103 L 238 97 L 235 96 Q 236 93 234 94 L 232 91 L 224 88 L 218 88 Z " /><path fill="rgb(105,115,129)" stroke="rgb(105,115,129)" stroke-width="1" opacity="0.996078431372549" d="M 60.5 260 L 167.5 260 L 168.5 261 L 177.5 261 L 179 262.5 L 178 271.5 L 172.5 280 L 172 278.5 L 175 275.5 Q 174.4 269.9 178 268.5 L 178 262 L 168.5 262 L 167.5 261 L 60.5 261 L 60.5 260 Z " /><path fill="rgb(105,115,129)" stroke="rgb(105,115,129)" stroke-width="1" opacity="0.996078431372549" d="M 276.5 260 L 381.5 260 L 382.5 261 L 392.5 261 L 394 262.5 L 393.5 268 L 393 262 L 382.5 262 L 381.5 261 L 276.5 261 L 275.5 262 L 263 262 L 263 268.5 Q 266.6 269.9 266 275.5 L 269 278.5 L 269 281 Q 272.8 279.5 272 282.5 L 285 290.5 L 282.5 291 L 272 285 L 270.5 282 L 268 280.5 L 263 271.5 L 262 262.5 L 263.5 261 L 275.5 261 L 276.5 260 Z " /><path fill="rgb(105,115,129)" stroke="rgb(105,115,129)" stroke-width="1" opacity="0.996078431372549" d="M 48.5 261 L 59 261.5 L 48 262 L 47.5 268 L 47 262.5 L 48.5 261 Z " /><path fill="rgb(105,115,129)" stroke="rgb(105,115,129)" stroke-width="1" opacity="0.996078431372549" d="M 48.5 269 L 51 274.5 L 49 273.5 L 48.5 269 Z " /><path fill="rgb(105,115,129)" stroke="rgb(105,115,129)" stroke-width="1" opacity="0.996078431372549" d="M 392.5 269 L 393 271.5 L 390.5 275 L 390 272.5 L 392.5 269 Z " /><path fill="rgb(105,115,129)" stroke="rgb(105,115,129)" stroke-width="1" opacity="0.996078431372549" d="M 51 276 Q 53.7 274.9 53 277.5 L 55.5 281 L 58 282.5 Q 57.3 284.8 59.5 284 L 70 290.5 L 67.5 291 L 53 279.5 Q 53.7 276.9 51 278 L 51 276 Z " /><path fill="rgb(105,115,129)" stroke="rgb(105,115,129)" stroke-width="1" opacity="0.996078431372549" d="M 388 276 Q 391 275 390 278 L 387 279.5 L 382.5 285 L 371.5 291 L 371.5 290 L 383 284 L 388 276 Z " /><path fill="rgb(105,115,129)" stroke="rgb(105,115,129)" stroke-width="1" opacity="0.996078431372549" d="M 169 281 L 172 281.5 L 169 283.5 Q 169.8 285.8 167.5 285 L 156.5 291 L 156.5 290 Q 164.3 287.8 169 282.5 L 169 281 Z " /><path fill="rgb(105,115,129)" stroke="rgb(105,115,129)" stroke-width="1" opacity="0.996078431372549" d="M 72.5 291 L 155 291.5 L 148.5 293 L 80.5 294 L 72.5 292 L 72.5 291 Z " /><path fill="rgb(105,115,129)" stroke="rgb(105,115,129)" stroke-width="1" opacity="0.996078431372549" d="M 286.5 291 L 369 291.5 L 364.5 293 L 299.5 293 L 297.5 294 L 291.5 292 L 286.5 292 L 286.5 291 Z " /><path fill="rgb(79,90,105)" stroke="rgb(79,90,105)" stroke-width="1" opacity="1" d="M 217.5 88 L 223.5 88 L 232 91 L 233.5 94 Q 235.8 93.3 235 95.5 L 238 97 L 241 102.5 L 241 114.5 L 238 120 L 235 121.5 Q 235.8 123.8 233.5 123 L 232 126 Q 226.6 126.3 223.5 130 L 217.5 130 Q 214.4 126.3 209 126 L 207.5 123 Q 205.3 123.8 206 121.5 L 203 120 L 200 114.5 L 200 102.5 L 203 97 L 206 95.5 Q 205.3 93.3 207.5 94 L 209 91 L 217.5 88 Z " /><path fill="rgb(79,90,105)" stroke="rgb(79,90,105)" stroke-width="1" opacity="1" d="M 59.5 261 L 167.5 261 L 168.5 262 L 178 262 L 178 268.5 Q 174.4 269.9 175 275.5 L 172 278.5 L 172 281 Q 168.3 279.5 169 282.5 L 155.5 291 L 70.5 291 L 58 284 L 56.5 281 L 54 279.5 L 53 276 Q 49.7 277.3 51 272.5 Q 46.5 269.8 48 262 L 58.5 262 L 59.5 261 Z " /><path fill="rgb(79,90,105)" stroke="rgb(79,90,105)" stroke-width="1" opacity="1" d="M 276.5 261 L 381.5 261 L 382.5 262 L 393 262 L 393 268.5 Q 389.1 270.6 390 276 Q 387.3 274.9 388 277.5 L 383 284 L 370.5 291 L 285.5 291 L 272 282.5 Q 272.7 279.5 269 281 L 269 278.5 L 266 275.5 Q 266.6 269.9 263 268.5 L 263 262 L 275.5 262 L 276.5 261 Z " /><path fill="rgb(189,201,214)" stroke="rgb(189,201,214)" stroke-width="1" opacity="0.8313725490196079" d="M 215.5 47 L 225.5 47 L 233 53.5 L 234 55.5 L 234 85.5 L 237.5 91 L 242.5 95 L 378.5 95 L 383.5 97 L 387 100.5 Q 390 104.5 389 112.5 L 384.5 119 L 377.5 122 L 342.5 122 L 338.5 123 L 336 125.5 L 336 163.5 L 337 164.5 Q 335.4 176.6 338 184.5 L 342 193.5 L 367 233.5 L 369 239.5 L 379.5 255 L 381.5 256 L 392.5 256 L 397 259 L 398 267.5 L 395 275.5 L 382.5 289 L 373.5 294 L 365.5 296 L 301.5 296 Q 300 298.5 294.5 297 L 280.5 294 L 270 287.5 L 270 285 L 268 285 Q 269.1 282.3 266.5 283 L 260 273.5 L 258 263.5 L 259 259.5 L 261.5 257 L 276.5 255 L 280 251.5 L 288 236.5 L 292 232.5 L 303 210.5 L 309 202.5 L 310 198.5 L 313 195.5 L 319 182.5 L 320 177.5 L 320 124.5 L 313.5 122 L 243.5 122 L 235 129.5 L 234 132.5 L 234 322.5 L 236.5 325 L 260.5 325 Q 261.8 322.8 266.5 324 L 274.5 326 L 279 330.5 L 281 335.5 L 281 354.5 L 275.5 362 L 272.5 363 L 169.5 363 L 162 358.5 Q 158 350.5 160 336.5 L 161 333.5 L 164.5 327 L 167.5 325 L 206 325 L 206 129.5 L 201 123 L 198.5 122 L 131.5 122 L 130.5 123 L 123 123 L 123 184.5 L 161 248.5 L 162 254 Q 166.5 257.6 177.5 256 L 181 259.5 Q 182.6 269.6 180 275.5 L 170.5 287 L 159.5 294 L 151.5 296 L 78.5 297 Q 77.3 294.8 72.5 296 L 60.5 291 L 51 282.5 L 50 279 Q 47 280.3 48 276.5 L 45 272.5 L 44 259.5 L 48.5 256 Q 58.8 257 64 254 L 93 202.5 L 99 194.5 L 105 181.5 L 105 123.5 L 103.5 122 L 61.5 122 L 55 117.5 Q 51.3 113.2 53 103.5 L 57.5 97 L 61.5 95 L 198.5 95 L 206 87.5 L 206 58.5 Q 207.8 51.3 213.5 48 L 215.5 47 Z M 216 83 L 209 86 L 209 89 L 194 104 Q 192 114 197 118 L 200 119 L 210 131 L 212 132 L 230 132 L 231 130 L 243 119 L 247 114 L 247 104 L 232 89 L 232 86 L 226 83 L 216 83 Z M 114 205 L 92 242 Q 93 244 90 243 L 85 255 L 91 256 L 113 256 L 114 255 Q 119 254 121 256 L 137 256 L 143 255 L 119 214 L 117 208 L 114 205 Z M 327 205 L 323 215 L 320 218 L 306 243 Q 307 245 304 244 L 304 248 Q 300 250 300 255 L 306 256 Q 312 258 314 255 Q 320 253 322 256 L 325 255 Q 329 254 331 256 L 350 256 L 351 255 L 357 255 L 330 207 L 327 205 Z M 64 258 L 63 259 L 49 259 L 46 262 L 47 273 L 53 282 Q 59 288 68 292 L 72 292 L 75 294 Q 79 293 81 295 L 90 295 L 91 294 L 153 294 L 169 286 L 179 273 L 180 262 L 177 259 L 166 259 L 165 258 L 147 258 L 146 259 L 83 259 L 82 258 L 64 258 Z M 279 258 L 278 259 L 264 259 L 261 262 L 262 273 L 267 281 L 277 289 L 289 294 L 366 294 Q 368 291 374 292 L 384 286 L 394 273 L 395 262 L 392 259 L 380 259 L 379 258 L 362 258 L 361 259 L 298 259 L 297 258 L 279 258 Z " /></svg>