<svg width="124" height="158" version="1.1" xmlns="http://www.w3.org/2000/svg" desc="Created with imagetracer.js version 1.2.6" ><path fill="rgb(0,0,0)" stroke="rgb(0,0,0)" stroke-width="1" opacity="0" d="M 0 0 L 124 0 L 124 158 L 0 158 L 0 0 Z M 61 32 L 48 36 L 42 40 L 29 55 L 25 65 Q 27 70 24 72 L 24 79 L 26 89 L 33 102 Q 42 113 58 117 L 76 117 L 81 116 L 94 109 L 105 96 L 110 80 L 110 71 L 108 61 L 99 46 L 85 35 L 74 32 L 61 32 Z " /><path fill="rgb(250,218,105)" stroke="rgb(250,218,105)" stroke-width="1" opacity="0.8352941176470589" d="M 60.5 32 L 74 32.5 L 60.5 33 L 60.5 32 Z " /><path fill="rgb(250,218,105)" stroke="rgb(250,218,105)" stroke-width="1" opacity="0.8352941176470589" d="M 55.5 33 L 59 33.5 Q 41.8 37.3 33 49.5 L 27.5 60 L 27 58.5 Q 31.9 46.9 41.5 40 L 55.5 33 Z " /><path fill="rgb(250,218,105)" stroke="rgb(250,218,105)" stroke-width="1" opacity="0.8352941176470589" d="M 75.5 33 L 86.5 36 L 99 45.5 L 105 54.5 L 103 53.5 Q 99.3 44.7 91.5 40 L 81.5 35 L 75.5 34 L 75.5 33 Z " /><path fill="rgb(250,218,105)" stroke="rgb(250,218,105)" stroke-width="1" opacity="0.8352941176470589" d="M 105.5 56 L 108 62.5 L 107 62.5 L 105.5 56 Z " /><path fill="rgb(250,218,105)" stroke="rgb(250,218,105)" stroke-width="1" opacity="0.8352941176470589" d="M 26.5 61 L 27 63.5 L 25.5 68 L 25 64.5 L 26.5 61 Z " /><path fill="rgb(250,218,105)" stroke="rgb(250,218,105)" stroke-width="1" opacity="0.8352941176470589" d="M 108.5 64 L 109 66.5 L 108 66.5 L 108.5 64 Z " /><path fill="rgb(250,218,105)" stroke="rgb(250,218,105)" stroke-width="1" opacity="0.8352941176470589" d="M 109.5 70 L 110 79.5 L 109 79.5 L 109.5 70 Z " /><path fill="rgb(250,218,105)" stroke="rgb(250,218,105)" stroke-width="1" opacity="0.8352941176470589" d="M 24.5 71 L 25 78.5 L 24 78.5 L 24.5 71 Z " /><path fill="rgb(250,218,105)" stroke="rgb(250,218,105)" stroke-width="1" opacity="0.8352941176470589" d="M 25.5 82 L 26 84.5 L 25 84.5 L 25.5 82 Z " /><path fill="rgb(250,218,105)" stroke="rgb(250,218,105)" stroke-width="1" opacity="0.8352941176470589" d="M 108.5 82 L 109 85.5 L 103.5 97 L 104 95.5 L 108.5 82 Z " /><path fill="rgb(250,218,105)" stroke="rgb(250,218,105)" stroke-width="1" opacity="0.8352941176470589" d="M 26.5 86 L 28 90.5 L 27 90.5 L 26.5 86 Z " /><path fill="rgb(250,218,105)" stroke="rgb(250,218,105)" stroke-width="1" opacity="0.8352941176470589" d="M 28.5 92 L 30 94.5 L 28 93.5 L 28.5 92 Z " /><path fill="rgb(250,218,105)" stroke="rgb(250,218,105)" stroke-width="1" opacity="0.8352941176470589" d="M 30.5 96 L 38.5 106 Q 45.1 112.9 56 115.5 L 53.5 116 Q 40.8 111.2 33 101.5 L 30.5 96 Z " /><path fill="rgb(250,218,105)" stroke="rgb(250,218,105)" stroke-width="1" opacity="0.8352941176470589" d="M 102.5 98 L 102 99.5 L 93.5 109 L 83.5 115 L 77.5 116 L 77.5 115 L 85.5 113 L 100 101.5 L 102.5 98 Z " /><path fill="rgb(250,218,105)" stroke="rgb(250,218,105)" stroke-width="1" opacity="0.8352941176470589" d="M 57.5 116 L 62 116.5 L 57.5 117 L 57.5 116 Z " /><path fill="rgb(250,218,105)" stroke="rgb(250,218,105)" stroke-width="1" opacity="0.8352941176470589" d="M 72.5 116 L 76 116.5 L 72.5 117 L 72.5 116 Z " /><path fill="rgb(17,14,7)" stroke="rgb(17,14,7)" stroke-width="1" opacity="1" d="M 53.5 62 Q 58.8 60.8 60 63.5 L 61 67.5 L 58.5 71 L 54.5 72 Q 50 71 51 64.5 L 53.5 62 Z " /><path fill="rgb(17,14,7)" stroke="rgb(17,14,7)" stroke-width="1" opacity="1" d="M 76.5 62 Q 82 61 83 64.5 Q 84 71 79.5 72 L 74 69.5 L 73 65.5 L 74 63 L 76.5 62 Z " /><path fill="rgb(232,161,39)" stroke="rgb(232,161,39)" stroke-width="1" opacity="0.996078431372549" d="M 54.5 61 L 57 61.5 L 54.5 62 L 54.5 61 Z " /><path fill="rgb(232,161,39)" stroke="rgb(232,161,39)" stroke-width="1" opacity="0.996078431372549" d="M 77.5 61 L 80 61.5 L 77.5 62 L 77.5 61 Z " /><path fill="rgb(232,161,39)" stroke="rgb(232,161,39)" stroke-width="1" opacity="0.996078431372549" d="M 106.5 62 Q 110.7 68.3 109 80.5 L 106 90.5 L 101.5 97 L 98 99.5 L 97 104 L 91 105 L 90 109 Q 83.7 107.5 84.5 111 L 79.5 111 L 77.5 112 Q 75 108.8 69 110 L 68.5 112 L 59.5 112 L 57 111 L 57.5 109 L 64.5 109 L 68.5 107 L 73 108 Q 71.7 104.7 76.5 106 L 83 102 L 83 100 L 87 100 L 87 98.5 L 91 95.5 Q 88.8 94.3 91.5 93 L 94 92.5 L 94 90.5 L 95.5 88 Q 97.8 88.8 97 86.5 L 101 78 Q 104 79.3 103 75.5 L 106 67.5 L 105 65.5 L 106.5 62 Z " /><path fill="rgb(232,161,39)" stroke="rgb(232,161,39)" stroke-width="1" opacity="0.996078431372549" d="M 83.5 65 L 84 67.5 L 83 67.5 L 83.5 65 Z " /><path fill="rgb(232,161,39)" stroke="rgb(232,161,39)" stroke-width="1" opacity="0.996078431372549" d="M 60.5 68 L 61 69.5 L 59 70.5 L 60.5 68 Z " /><path fill="rgb(232,161,39)" stroke="rgb(232,161,39)" stroke-width="1" opacity="0.996078431372549" d="M 51.5 69 L 52.5 71 L 51.5 69 Z " /><path fill="rgb(232,161,39)" stroke="rgb(232,161,39)" stroke-width="1" opacity="0.996078431372549" d="M 82.5 69 L 80.5 72 L 82.5 69 Z " /><path fill="rgb(232,161,39)" stroke="rgb(232,161,39)" stroke-width="1" opacity="0.996078431372549" d="M 82.5 83 L 84 86.5 Q 77.6 94.6 60.5 92 L 51 88 L 50 84 L 56.5 84 L 57.5 85 L 75.5 85 L 82.5 83 Z " /><path fill="rgb(232,161,39)" stroke="rgb(232,161,39)" stroke-width="1" opacity="0.996078431372549" d="M 47.5 109 Q 49.8 108.3 49 110.5 L 47.5 109 Z " /><path fill="rgb(249,205,60)" stroke="rgb(249,205,60)" stroke-width="1" opacity="0.996078431372549" d="M 59.5 33 Q 71 31.5 78.5 34 Q 87.3 36.3 93 41.5 L 91 41.5 L 92 44.5 L 91 46.5 L 93 48.5 L 94 63.5 L 91 68.5 L 91.5 70 Q 88.5 69.1 90 73.5 Q 88.7 76.2 87.5 74 L 86 74 Q 87.5 77.8 84.5 77 L 83 81 L 79 81 L 78.5 84 L 70.5 84 Q 68.8 86.8 62.5 85 L 51.5 83 L 49 84 L 52.5 89 L 59 92.5 L 55 93 L 54.5 95 L 51.5 93 Q 44.7 94.3 41.5 92 Q 40 94.5 38.5 91 L 30 86.5 Q 30.8 84.3 28.5 85 L 26 86 Q 23.9 79.6 25 68.5 Q 28.9 50.4 41.5 41 Q 48.8 35.3 59.5 33 Z M 55 61 L 52 62 Q 50 64 51 70 Q 52 73 59 72 Q 62 71 61 65 Q 60 60 55 61 Z M 77 61 L 74 62 L 73 65 Q 72 71 76 72 Q 83 73 84 69 L 83 64 Q 82 60 77 61 Z " /><path fill="rgb(241,185,49)" stroke="rgb(241,185,49)" stroke-width="1" opacity="0.996078431372549" d="M 91.5 41 L 101 49.5 L 107 61.5 L 105 66.5 L 106 68.5 L 104 71.5 L 103 78 Q 100.3 76.9 101 79.5 L 97 88 L 94 89.5 L 93 91.5 L 93.5 93 L 91 93.5 Q 93.3 94.8 90.5 96 L 87 98.5 L 87 100 L 83 100 Q 84.1 102.7 81.5 102 Q 79.3 106.9 73 106 Q 74.3 109.3 69.5 108 L 67.5 107 Q 64.4 110.6 57 109 Q 55.9 111.7 58.5 111 L 59.5 112 L 69 112 Q 67.6 108 74.5 110 L 78.5 112 L 85 111 L 85 109 L 90 109 L 90 107.5 L 91 105 L 97 104 Q 96.9 99.1 100.5 97 L 103.5 95 L 103 96.5 L 94.5 107 L 80.5 115 L 71.5 117 L 62.5 117 L 48.5 113 L 36 103.5 Q 29.5 97 27 86.5 L 30 85 L 31.5 88 L 40.5 93 L 42.5 92 L 43.5 93 L 51.5 93 L 54.5 95 L 55 93 L 59 92.5 L 58.5 91 L 60.5 92 L 74.5 92 L 84 86.5 L 82.5 83 L 79 84 L 79 81 Q 84.2 83.1 83 78.5 L 86 77 Q 84.5 73.3 87.5 74 Q 88.7 76.2 90 73.5 Q 88.5 69.1 91.5 70 Q 89.9 68.3 93 66.5 L 94 56.5 Q 91.2 54.8 93 48.5 L 91 45.5 L 91 43.5 L 91.5 41 Z M 48 109 L 49 111 Q 50 108 48 109 Z " /><path fill="rgb(241,185,49)" stroke="rgb(241,185,49)" stroke-width="1" opacity="0.996078431372549" d="M 49.5 84 L 51 86.5 L 49 85.5 L 49.5 84 Z " /><path fill="rgb(241,185,49)" stroke="rgb(241,185,49)" stroke-width="1" opacity="0.996078431372549" d="M 57.5 84 L 62 84.5 L 57.5 85 L 57.5 84 Z " /><path fill="rgb(241,185,49)" stroke="rgb(241,185,49)" stroke-width="1" opacity="0.996078431372549" d="M 70.5 84 L 76 84.5 L 70.5 85 L 70.5 84 Z " /><path fill="rgb(241,185,49)" stroke="rgb(241,185,49)" stroke-width="1" opacity="0.996078431372549" d="M 54.5 89 L 57 90.5 L 55.5 91 L 54.5 89 Z " /></svg>