<svg width="276" height="254" version="1.1" xmlns="http://www.w3.org/2000/svg" desc="Created with imagetracer.js version 1.2.6" ><path fill="rgb(122,132,145)" stroke="rgb(122,132,145)" stroke-width="1" opacity="0.8666666666666667" d="M 83.5 53 Q 89.4 53.6 92 57.5 L 93 60.5 L 93 99.5 Q 96.5 117 108.5 126 Q 115.8 131.7 126.5 134 L 179.5 134 L 152 105.5 L 151 98.5 L 154.5 94 L 161.5 92 L 165.5 94 L 209 137.5 L 210 146.5 L 205.5 152 L 202 154.5 L 199.5 158 L 196 160.5 L 192.5 165 L 189 167.5 L 185.5 172 L 182 174.5 L 179.5 178 L 176 180.5 L 173.5 184 L 170 186.5 L 166.5 191 Q 164.6 194.6 158.5 194 L 152 189.5 L 151 182.5 L 154 177 L 155.5 177 L 166 166.5 L 167.5 164 L 180 152.5 L 128.5 152 Q 127 149.5 121.5 151 Q 102.5 146 91 133.5 Q 80.2 122.3 76 104.5 L 76 96.5 L 75 95.5 L 75 61.5 L 79.5 55 L 83.5 53 Z " /><path fill="rgb(0,0,0)" stroke="rgb(0,0,0)" stroke-width="1" opacity="0" d="M 0 0 L 276 0 L 276 254 L 0 254 L 0 0 Z M 84 53 L 80 55 L 75 62 L 75 96 L 76 97 L 76 105 Q 80 122 91 134 Q 103 146 122 151 Q 127 150 129 152 L 180 153 L 168 164 L 166 167 L 156 177 L 154 177 L 151 183 L 152 190 L 159 194 Q 165 195 167 191 L 170 187 L 174 184 L 176 181 L 180 178 L 182 175 L 186 172 L 189 168 L 193 165 L 196 161 L 200 158 L 202 155 L 206 152 L 210 147 L 209 138 L 166 94 L 162 92 L 155 94 L 151 99 L 152 106 L 180 134 L 127 134 Q 116 132 109 126 Q 97 117 93 100 L 93 61 L 92 58 Q 89 54 84 53 Z " /></svg>