<svg width="124" height="114" version="1.1" xmlns="http://www.w3.org/2000/svg" desc="Created with imagetracer.js version 1.2.6" ><path fill="rgb(0,0,0)" stroke="rgb(0,0,0)" stroke-width="1" opacity="0" d="M 0 0 L 124 0 L 124 114 L 0 114 L 0 0 Z M 52 26 L 49 28 Q 43 31 45 39 L 84 39 L 89 41 Q 93 44 95 51 Q 96 60 94 65 L 100 64 Q 104 61 105 56 L 105 39 L 103 33 L 95 26 L 52 26 Z M 36 43 L 32 45 L 28 50 L 27 55 L 27 72 L 29 78 Q 33 84 44 82 L 44 95 L 46 96 L 48 96 L 62 82 L 84 82 L 88 80 L 91 74 L 91 52 L 90 49 L 83 43 L 36 43 Z " /><path fill="rgb(158,164,174)" stroke="rgb(158,164,174)" stroke-width="1" opacity="0.9372549019607843" d="M 51.5 26 L 94.5 26 L 103 32.5 L 105 38.5 L 105 55.5 Q 103.8 61.3 99.5 64 L 94 65 Q 96.1 60.1 95 50.5 Q 93.5 44 88.5 41 L 83.5 39 L 45 39 Q 43.5 30.8 48.5 28 L 51.5 26 Z " /><path fill="rgb(158,164,174)" stroke="rgb(158,164,174)" stroke-width="1" opacity="0.9372549019607843" d="M 85.5 44 L 90 49.5 L 89 49.5 L 85.5 44 Z " /><path fill="rgb(158,164,174)" stroke="rgb(158,164,174)" stroke-width="1" opacity="0.9372549019607843" d="M 31.5 45 L 30.5 47 L 31.5 45 Z " /><path fill="rgb(158,164,174)" stroke="rgb(158,164,174)" stroke-width="1" opacity="0.9372549019607843" d="M 27.5 54 L 28 71.5 L 27 71.5 L 27.5 54 Z " /><path fill="rgb(158,164,174)" stroke="rgb(158,164,174)" stroke-width="1" opacity="0.9372549019607843" d="M 29.5 77 L 32.5 81 L 29.5 77 Z " /><path fill="rgb(111,122,136)" stroke="rgb(111,122,136)" stroke-width="1" opacity="0.9450980392156862" d="M 32.5 45 L 31.5 47 L 32.5 45 Z " /><path fill="rgb(111,122,136)" stroke="rgb(111,122,136)" stroke-width="1" opacity="0.9450980392156862" d="M 90.5 53 L 91 71.5 L 90 71.5 L 90.5 53 Z " /><path fill="rgb(111,122,136)" stroke="rgb(111,122,136)" stroke-width="1" opacity="0.9450980392156862" d="M 88.5 77 L 86.5 80 L 88.5 77 Z " /><path fill="rgb(111,122,136)" stroke="rgb(111,122,136)" stroke-width="1" opacity="0.9450980392156862" d="M 60.5 82 L 48.5 95 L 60.5 82 Z " /><path fill="rgb(107,118,132)" stroke="rgb(107,118,132)" stroke-width="1" opacity="1" d="M 38.5 43 L 78.5 43 L 85.5 45 L 89 48.5 L 90 51.5 L 90 74.5 L 84.5 81 L 81.5 82 L 60.5 82 L 46.5 96 L 44 93.5 L 44 82 Q 32.7 83.7 29 76.5 L 28 73.5 L 28 51.5 L 30 47 L 38.5 43 Z " /></svg>