<svg width="150" height="150" version="1.1" xmlns="http://www.w3.org/2000/svg" desc="Created with imagetracer.js version 1.2.6" ><path fill="rgb(0,0,0)" stroke="rgb(0,0,0)" stroke-width="1" opacity="0" d="M 0 0 L 150 0 L 150 150 L 0 150 L 0 0 Z M 81 19 L 66 23 L 54 30 L 44 44 L 40 56 L 40 73 L 46 88 L 41 100 L 41 107 L 45 109 L 61 103 L 77 109 L 92 109 L 100 107 L 113 100 L 124 87 L 129 71 L 128 53 L 120 37 L 109 26 L 98 21 L 87 20 L 86 19 L 84 20 L 81 19 Z " /><path fill="rgb(86,160,252)" stroke="rgb(86,160,252)" stroke-width="1" opacity="0.8745098039215686" d="M 77.5 20 L 80 20.5 L 77.5 21 L 77.5 20 Z " /><path fill="rgb(86,160,252)" stroke="rgb(86,160,252)" stroke-width="1" opacity="0.8745098039215686" d="M 87.5 20 L 91 20.5 L 87.5 21 L 87.5 20 Z " /><path fill="rgb(86,160,252)" stroke="rgb(86,160,252)" stroke-width="1" opacity="0.8745098039215686" d="M 62.5 25 L 61.5 27 L 62.5 25 Z " /><path fill="rgb(86,160,252)" stroke="rgb(86,160,252)" stroke-width="1" opacity="0.8745098039215686" d="M 107.5 26 L 108.5 28 L 107.5 26 Z " /><path fill="rgb(86,160,252)" stroke="rgb(86,160,252)" stroke-width="1" opacity="0.8745098039215686" d="M 110.5 28 L 112.5 31 L 110.5 28 Z " /><path fill="rgb(86,160,252)" stroke="rgb(86,160,252)" stroke-width="1" opacity="0.8745098039215686" d="M 55.5 30 L 50.5 36 L 55.5 30 Z " /><path fill="rgb(86,160,252)" stroke="rgb(86,160,252)" stroke-width="1" opacity="0.8745098039215686" d="M 118.5 36 L 119.5 38 L 118.5 36 Z " /><path fill="rgb(86,160,252)" stroke="rgb(86,160,252)" stroke-width="1" opacity="0.8745098039215686" d="M 48.5 38 L 47.5 40 L 48.5 38 Z " /><path fill="rgb(86,160,252)" stroke="rgb(86,160,252)" stroke-width="1" opacity="0.8745098039215686" d="M 40.5 57 L 41 70.5 L 40 70.5 L 40.5 57 Z " /><path fill="rgb(86,160,252)" stroke="rgb(86,160,252)" stroke-width="1" opacity="0.8745098039215686" d="M 128.5 60 L 129 67.5 L 128 67.5 L 128.5 60 Z " /><path fill="rgb(86,160,252)" stroke="rgb(86,160,252)" stroke-width="1" opacity="0.8745098039215686" d="M 45.5 85 L 46.5 87 L 45.5 85 Z " /><path fill="rgb(86,160,252)" stroke="rgb(86,160,252)" stroke-width="1" opacity="0.8745098039215686" d="M 118.5 92 L 117.5 94 L 118.5 92 Z " /><path fill="rgb(86,160,252)" stroke="rgb(86,160,252)" stroke-width="1" opacity="0.8745098039215686" d="M 114.5 96 L 112.5 99 L 114.5 96 Z " /><path fill="rgb(86,160,252)" stroke="rgb(86,160,252)" stroke-width="1" opacity="0.8745098039215686" d="M 109.5 100 L 108.5 102 L 109.5 100 Z " /><path fill="rgb(86,160,252)" stroke="rgb(86,160,252)" stroke-width="1" opacity="0.8745098039215686" d="M 60.5 102 L 63 102.5 L 60.5 103 L 60.5 102 Z " /><path fill="rgb(86,160,252)" stroke="rgb(86,160,252)" stroke-width="1" opacity="0.8745098039215686" d="M 41.5 105 L 43.5 108 L 41.5 105 Z " /><path fill="rgb(86,160,252)" stroke="rgb(86,160,252)" stroke-width="1" opacity="0.8745098039215686" d="M 82.5 108 L 87 108.5 L 82.5 109 L 82.5 108 Z " /><path fill="rgb(67,150,251)" stroke="rgb(67,150,251)" stroke-width="1" opacity="1" d="M 80.5 20 L 98.5 22 Q 110.2 26.8 118 35.5 Q 130 47 128 72.5 Q 124.9 87.4 115.5 96 Q 107.7 103.2 96.5 107 L 91.5 108 L 76.5 108 L 60.5 102 L 44.5 108 Q 40.5 107.5 41 102.5 L 47 86.5 L 41 74.5 L 41 53.5 Q 45.8 37.8 57.5 29 L 70.5 22 L 80.5 20 Z " /><path fill="rgb(205,230,254)" stroke="rgb(205,230,254)" stroke-width="1" opacity="0.12941176470588237" d="M 74.5 20 L 77 20.5 L 74.5 21 L 74.5 20 Z " /><path fill="rgb(205,230,254)" stroke="rgb(205,230,254)" stroke-width="1" opacity="0.12941176470588237" d="M 91.5 20 L 94 20.5 L 91.5 21 L 91.5 20 Z " /><path fill="rgb(205,230,254)" stroke="rgb(205,230,254)" stroke-width="1" opacity="0.12941176470588237" d="M 61.5 25 L 59.5 28 L 56.5 30 L 58.5 27 L 61.5 25 Z " /><path fill="rgb(205,230,254)" stroke="rgb(205,230,254)" stroke-width="1" opacity="0.12941176470588237" d="M 108.5 26 L 109.5 28 L 108.5 26 Z " /><path fill="rgb(205,230,254)" stroke="rgb(205,230,254)" stroke-width="1" opacity="0.12941176470588237" d="M 111.5 28 L 119.5 37 L 111.5 28 Z " /><path fill="rgb(205,230,254)" stroke="rgb(205,230,254)" stroke-width="1" opacity="0.12941176470588237" d="M 49.5 36 L 47.5 39 L 49.5 36 Z " /><path fill="rgb(205,230,254)" stroke="rgb(205,230,254)" stroke-width="1" opacity="0.12941176470588237" d="M 120.5 38 L 121.5 40 L 120.5 38 Z " /><path fill="rgb(205,230,254)" stroke="rgb(205,230,254)" stroke-width="1" opacity="0.12941176470588237" d="M 122.5 41 L 125 44.5 L 123 43.5 L 122.5 41 Z " /><path fill="rgb(205,230,254)" stroke="rgb(205,230,254)" stroke-width="1" opacity="0.12941176470588237" d="M 45.5 42 L 45 43.5 L 44.5 45 L 44 43.5 L 45.5 42 Z " /><path fill="rgb(205,230,254)" stroke="rgb(205,230,254)" stroke-width="1" opacity="0.12941176470588237" d="M 43.5 46 L 43 47.5 L 42.5 49 L 42 47.5 L 43.5 46 Z " /><path fill="rgb(205,230,254)" stroke="rgb(205,230,254)" stroke-width="1" opacity="0.12941176470588237" d="M 127.5 52 L 128 54.5 L 127 54.5 L 127.5 52 Z " /><path fill="rgb(205,230,254)" stroke="rgb(205,230,254)" stroke-width="1" opacity="0.12941176470588237" d="M 128.5 68 L 129 70.5 L 128 70.5 L 128.5 68 Z " /><path fill="rgb(205,230,254)" stroke="rgb(205,230,254)" stroke-width="1" opacity="0.12941176470588237" d="M 125.5 81 L 126 82.5 Q 121.2 93.2 112.5 100 L 109.5 102 L 111.5 99 L 119 92.5 L 125.5 81 Z " /><path fill="rgb(205,230,254)" stroke="rgb(205,230,254)" stroke-width="1" opacity="0.12941176470588237" d="M 107.5 102 L 106.5 104 L 105 103.5 L 107.5 102 Z " /><path fill="rgb(205,230,254)" stroke="rgb(205,230,254)" stroke-width="1" opacity="0.12941176470588237" d="M 41.5 106 L 42.5 108 L 41.5 106 Z " /><path fill="rgb(205,230,254)" stroke="rgb(205,230,254)" stroke-width="1" opacity="0.12941176470588237" d="M 72.5 107 L 75 107.5 L 72.5 108 L 72.5 107 Z " /><path fill="rgb(205,230,254)" stroke="rgb(205,230,254)" stroke-width="1" opacity="0.12941176470588237" d="M 76.5 108 L 82 108.5 L 76.5 109 L 76.5 108 Z " /><path fill="rgb(205,230,254)" stroke="rgb(205,230,254)" stroke-width="1" opacity="0.12941176470588237" d="M 87.5 108 L 92 108.5 L 87.5 109 L 87.5 108 Z " /></svg>