<svg width="66" height="54" version="1.1" xmlns="http://www.w3.org/2000/svg" desc="Created with imagetracer.js version 1.2.6" ><path fill="rgb(0,0,0)" stroke="rgb(0,0,0)" stroke-width="1" opacity="0" d="M 0 0 L 66 0 L 66 54 L 0 54 L 0 0 Z M 33 10 L 25 25 L 25 45 L 44 45 L 46 44 L 49 40 L 52 27 Q 52 22 49 20 L 39 20 L 39 12 Q 38 9 33 10 Z M 19 24 L 16 27 L 16 43 Q 18 47 24 45 L 24 25 Q 24 23 19 24 Z " /><path fill="rgb(109,117,132)" stroke="rgb(109,117,132)" stroke-width="1" opacity="0.3215686274509804" d="M 37.5 10 L 39 12.5 L 38 12.5 L 37.5 10 Z " /><path fill="rgb(109,117,132)" stroke="rgb(109,117,132)" stroke-width="1" opacity="0.3215686274509804" d="M 32.5 12 L 32 13.5 L 30.5 16 L 31 14.5 L 32.5 12 Z " /><path fill="rgb(109,117,132)" stroke="rgb(109,117,132)" stroke-width="1" opacity="0.3215686274509804" d="M 28.5 19 L 27.5 21 L 28.5 19 Z " /><path fill="rgb(109,117,132)" stroke="rgb(109,117,132)" stroke-width="1" opacity="0.3215686274509804" d="M 39.5 20 L 48.5 20 L 51 22.5 L 48.5 21 L 39.5 21 L 39.5 20 Z " /><path fill="rgb(109,117,132)" stroke="rgb(109,117,132)" stroke-width="1" opacity="0.3215686274509804" d="M 18.5 24 L 17 26.5 L 17 42.5 L 18.5 44 Q 23 44.5 23 43.5 L 23 24.5 L 24 24.5 L 24 44.5 Q 23.9 45.6 18.5 45 L 16 42.5 L 16 26.5 L 18.5 24 Z " /><path fill="rgb(109,117,132)" stroke="rgb(109,117,132)" stroke-width="1" opacity="0.3215686274509804" d="M 25.5 24 L 26 44 L 44 44.5 L 25 45 L 25.5 24 Z " /><path fill="rgb(109,117,132)" stroke="rgb(109,117,132)" stroke-width="1" opacity="0.3215686274509804" d="M 51.5 24 L 52 26.5 L 51 26.5 L 51.5 24 Z " /><path fill="rgb(109,117,132)" stroke="rgb(109,117,132)" stroke-width="1" opacity="0.3215686274509804" d="M 49.5 33 L 50 35.5 L 49 35.5 L 49.5 33 Z " /><path fill="rgb(109,117,132)" stroke="rgb(109,117,132)" stroke-width="1" opacity="0.3215686274509804" d="M 48.5 37 L 49 39.5 L 48 39.5 L 48.5 37 Z " /><path fill="rgb(109,117,132)" stroke="rgb(109,117,132)" stroke-width="1" opacity="0.3215686274509804" d="M 47.5 41 L 45.5 44 L 47.5 41 Z " /><path fill="rgb(109,118,131)" stroke="rgb(109,118,131)" stroke-width="1" opacity="0.8392156862745098" d="M 38.5 13 L 39 20.5 L 38 20.5 L 38.5 13 Z " /><path fill="rgb(109,118,131)" stroke="rgb(109,118,131)" stroke-width="1" opacity="0.8392156862745098" d="M 19.5 24 L 23 24.5 L 19.5 25 L 19.5 24 Z " /><path fill="rgb(109,118,131)" stroke="rgb(109,118,131)" stroke-width="1" opacity="1" d="M 34.5 11 L 38 11 L 38 21 L 48.5 21 Q 52 22 51 27.5 L 48 39.5 L 45.5 43 L 43.5 44 L 26 44 L 26 24.5 L 34.5 11 Z " /><path fill="rgb(109,118,131)" stroke="rgb(109,118,131)" stroke-width="1" opacity="1" d="M 18.5 25 Q 23 24.5 23 25.5 L 23 44 Q 18.4 45.3 17 42.5 L 17 26.5 L 18.5 25 Z " /></svg>