<svg width="174" height="150" version="1.1" xmlns="http://www.w3.org/2000/svg" desc="Created with imagetracer.js version 1.2.6" ><path fill="rgb(0,0,0)" stroke="rgb(0,0,0)" stroke-width="1" opacity="0" d="M 0 0 L 174 0 L 174 150 L 0 150 L 0 0 Z M 96 30 L 89 32 L 54 56 Q 49 59 48 65 L 49 113 L 51 117 L 60 123 L 135 123 L 140 121 Q 145 118 146 111 L 146 96 L 145 95 L 145 80 L 146 79 L 145 61 L 144 59 L 108 33 L 100 30 L 96 30 Z " /><path fill="rgb(193,215,253)" stroke="rgb(193,215,253)" stroke-width="1" opacity="0.7411764705882353" d="M 49.5 83 L 50 109.5 L 49 109.5 L 49.5 83 Z " /><path fill="rgb(193,215,253)" stroke="rgb(193,215,253)" stroke-width="1" opacity="0.7411764705882353" d="M 53.5 118 L 54.5 120 L 53.5 118 Z " /><path fill="rgb(193,215,253)" stroke="rgb(193,215,253)" stroke-width="1" opacity="0.7411764705882353" d="M 65.5 122 L 108 122.5 L 65.5 123 L 65.5 122 Z " /><path fill="rgb(193,215,253)" stroke="rgb(193,215,253)" stroke-width="1" opacity="0.7411764705882353" d="M 110.5 122 L 131 122.5 L 110.5 123 L 110.5 122 Z " /><path fill="rgb(214,230,254)" stroke="rgb(214,230,254)" stroke-width="1" opacity="1" d="M 63.5 75 L 64.5 77 L 63.5 75 Z " /><path fill="rgb(214,230,254)" stroke="rgb(214,230,254)" stroke-width="1" opacity="1" d="M 129.5 76 L 128.5 78 L 129.5 76 Z " /><path fill="rgb(214,230,254)" stroke="rgb(214,230,254)" stroke-width="1" opacity="1" d="M 66.5 77 L 68.5 80 L 66.5 77 Z " /><path fill="rgb(214,230,254)" stroke="rgb(214,230,254)" stroke-width="1" opacity="1" d="M 126.5 78 L 125.5 80 L 126.5 78 Z " /><path fill="rgb(214,230,254)" stroke="rgb(214,230,254)" stroke-width="1" opacity="1" d="M 119.5 83 L 118.5 85 L 119.5 83 Z " /><path fill="rgb(214,230,254)" stroke="rgb(214,230,254)" stroke-width="1" opacity="1" d="M 76.5 84 L 82 87.5 L 80.5 88 L 76.5 84 Z " /><path fill="rgb(214,230,254)" stroke="rgb(214,230,254)" stroke-width="1" opacity="1" d="M 116.5 85 L 115.5 87 L 112.5 89 L 114.5 86 L 116.5 85 Z " /><path fill="rgb(214,230,254)" stroke="rgb(214,230,254)" stroke-width="1" opacity="1" d="M 109.5 90 L 108.5 92 L 109.5 90 Z " /><path fill="rgb(214,230,254)" stroke="rgb(214,230,254)" stroke-width="1" opacity="1" d="M 88.5 92 L 91 93.5 L 89.5 94 L 88.5 92 Z " /><path fill="rgb(214,230,254)" stroke="rgb(214,230,254)" stroke-width="1" opacity="1" d="M 96.5 95 L 99 95.5 L 96.5 96 L 96.5 95 Z " /><path fill="rgb(50,130,246)" stroke="rgb(50,130,246)" stroke-width="1" opacity="0.9921568627450981" d="M 93.5 31 L 101.5 31 L 107.5 34 L 139.5 56 L 144 60.5 L 145 65.5 L 133 74 L 133 59.5 L 130.5 56 L 64.5 56 L 62 58.5 L 62 73.5 L 60.5 74 L 50 66.5 Q 48.9 58.9 53.5 57 L 88.5 33 L 93.5 31 Z " /><path fill="rgb(145,186,251)" stroke="rgb(145,186,251)" stroke-width="1" opacity="0.7607843137254902" d="M 87.5 33 L 86.5 35 L 87.5 33 Z " /><path fill="rgb(145,186,251)" stroke="rgb(145,186,251)" stroke-width="1" opacity="0.7607843137254902" d="M 84.5 35 L 83.5 37 L 84.5 35 Z " /><path fill="rgb(145,186,251)" stroke="rgb(145,186,251)" stroke-width="1" opacity="0.7607843137254902" d="M 74.5 42 L 73.5 44 L 74.5 42 Z " /><path fill="rgb(145,186,251)" stroke="rgb(145,186,251)" stroke-width="1" opacity="0.7607843137254902" d="M 61.5 51 L 60.5 53 L 61.5 51 Z " /><path fill="rgb(145,186,251)" stroke="rgb(145,186,251)" stroke-width="1" opacity="0.7607843137254902" d="M 134.5 52 L 135.5 54 L 134.5 52 Z " /><path fill="rgb(145,186,251)" stroke="rgb(145,186,251)" stroke-width="1" opacity="0.7607843137254902" d="M 58.5 53 L 57.5 55 L 58.5 53 Z " /><path fill="rgb(145,186,251)" stroke="rgb(145,186,251)" stroke-width="1" opacity="0.7607843137254902" d="M 141.5 57 L 142.5 59 L 141.5 57 Z " /><path fill="rgb(145,186,251)" stroke="rgb(145,186,251)" stroke-width="1" opacity="0.7607843137254902" d="M 144.5 66 L 145 71.5 L 144 71.5 L 144.5 66 Z " /><path fill="rgb(145,186,251)" stroke="rgb(145,186,251)" stroke-width="1" opacity="0.7607843137254902" d="M 144.5 75 L 145 95.5 L 144 95.5 L 144.5 75 Z " /><path fill="rgb(145,186,251)" stroke="rgb(145,186,251)" stroke-width="1" opacity="0.7607843137254902" d="M 144.5 110 L 145 112.5 L 144 112.5 L 144.5 110 Z " /><path fill="rgb(215,231,254)" stroke="rgb(215,231,254)" stroke-width="1" opacity="1" d="M 65.5 56 L 129.5 56 L 132 58.5 L 132 74.5 L 130.5 76 L 107.5 92 Q 103.4 95.9 94.5 95 L 82 89 Q 83.1 86.3 80.5 87 L 62 75 L 62 61.5 L 65.5 56 Z " /><path fill="rgb(136,180,251)" stroke="rgb(136,180,251)" stroke-width="1" opacity="1" d="M 64.5 56 L 63 58.5 L 62.5 60 L 62 58.5 L 64.5 56 Z " /><path fill="rgb(136,180,251)" stroke="rgb(136,180,251)" stroke-width="1" opacity="1" d="M 130.5 56 L 131.5 58 L 130.5 56 Z " /><path fill="rgb(136,180,251)" stroke="rgb(136,180,251)" stroke-width="1" opacity="1" d="M 132.5 59 L 133 74 L 143.5 67 L 145 74.5 L 144 75.5 L 144 95.5 L 145 96.5 L 145 109.5 L 142 117.5 L 139.5 120 L 134.5 122 L 59.5 122 L 52 116.5 L 50 112.5 L 49 65.5 L 50 65.5 L 51.5 68 L 89.5 94 L 98.5 96 L 108.5 92 L 132 76 L 132.5 59 Z " /><path fill="rgb(228,236,253)" stroke="rgb(228,236,253)" stroke-width="1" opacity="0.050980392156862744" d="M 107.5 33 L 108.5 35 L 107.5 33 Z " /><path fill="rgb(228,236,253)" stroke="rgb(228,236,253)" stroke-width="1" opacity="0.050980392156862744" d="M 110.5 35 L 111.5 37 L 110.5 35 Z " /><path fill="rgb(228,236,253)" stroke="rgb(228,236,253)" stroke-width="1" opacity="0.050980392156862744" d="M 82.5 36 L 81.5 38 L 82.5 36 Z " /><path fill="rgb(228,236,253)" stroke="rgb(228,236,253)" stroke-width="1" opacity="0.050980392156862744" d="M 113.5 37 L 114.5 39 L 113.5 37 Z " /><path fill="rgb(228,236,253)" stroke="rgb(228,236,253)" stroke-width="1" opacity="0.050980392156862744" d="M 79.5 38 L 78.5 40 L 79.5 38 Z " /><path fill="rgb(228,236,253)" stroke="rgb(228,236,253)" stroke-width="1" opacity="0.050980392156862744" d="M 116.5 39 L 117.5 41 L 116.5 39 Z " /><path fill="rgb(228,236,253)" stroke="rgb(228,236,253)" stroke-width="1" opacity="0.050980392156862744" d="M 76.5 40 L 75.5 42 L 76.5 40 Z " /><path fill="rgb(228,236,253)" stroke="rgb(228,236,253)" stroke-width="1" opacity="0.050980392156862744" d="M 119.5 41 L 120.5 43 L 119.5 41 Z " /><path fill="rgb(228,236,253)" stroke="rgb(228,236,253)" stroke-width="1" opacity="0.050980392156862744" d="M 73.5 42 L 71.5 45 L 68.5 47 L 70.5 44 L 73.5 42 Z " /><path fill="rgb(228,236,253)" stroke="rgb(228,236,253)" stroke-width="1" opacity="0.050980392156862744" d="M 126.5 46 L 127.5 48 L 126.5 46 Z " /><path fill="rgb(228,236,253)" stroke="rgb(228,236,253)" stroke-width="1" opacity="0.050980392156862744" d="M 66.5 47 L 65.5 49 L 66.5 47 Z " /><path fill="rgb(228,236,253)" stroke="rgb(228,236,253)" stroke-width="1" opacity="0.050980392156862744" d="M 129.5 48 L 130.5 50 L 129.5 48 Z " /><path fill="rgb(228,236,253)" stroke="rgb(228,236,253)" stroke-width="1" opacity="0.050980392156862744" d="M 63.5 49 L 62.5 51 L 63.5 49 Z " /><path fill="rgb(228,236,253)" stroke="rgb(228,236,253)" stroke-width="1" opacity="0.050980392156862744" d="M 132.5 50 L 133.5 52 L 132.5 50 Z " /><path fill="rgb(228,236,253)" stroke="rgb(228,236,253)" stroke-width="1" opacity="0.050980392156862744" d="M 135.5 52 L 141 56.5 L 138.5 55 L 135.5 52 Z " /><path fill="rgb(228,236,253)" stroke="rgb(228,236,253)" stroke-width="1" opacity="0.050980392156862744" d="M 56.5 54 L 55.5 56 L 56.5 54 Z " /><path fill="rgb(228,236,253)" stroke="rgb(228,236,253)" stroke-width="1" opacity="0.050980392156862744" d="M 53.5 56 L 50.5 60 L 53.5 56 Z " /><path fill="rgb(228,236,253)" stroke="rgb(228,236,253)" stroke-width="1" opacity="0.050980392156862744" d="M 142.5 57 L 145 60.5 L 143 59.5 L 142.5 57 Z " /><path fill="rgb(228,236,253)" stroke="rgb(228,236,253)" stroke-width="1" opacity="0.050980392156862744" d="M 48.5 64 L 49 90.5 L 48 90.5 L 48.5 64 Z " /><path fill="rgb(228,236,253)" stroke="rgb(228,236,253)" stroke-width="1" opacity="0.050980392156862744" d="M 145.5 71 L 146 78.5 L 145 78.5 L 145.5 71 Z " /><path fill="rgb(228,236,253)" stroke="rgb(228,236,253)" stroke-width="1" opacity="0.050980392156862744" d="M 145.5 95 L 146 110.5 L 145 110.5 L 145.5 95 Z " /><path fill="rgb(228,236,253)" stroke="rgb(228,236,253)" stroke-width="1" opacity="0.050980392156862744" d="M 49.5 110 L 50 112.5 L 49 112.5 L 49.5 110 Z " /><path fill="rgb(228,236,253)" stroke="rgb(228,236,253)" stroke-width="1" opacity="0.050980392156862744" d="M 144.5 113 L 145 114.5 L 143 115.5 L 144.5 113 Z " /><path fill="rgb(228,236,253)" stroke="rgb(228,236,253)" stroke-width="1" opacity="0.050980392156862744" d="M 51.5 116 L 52.5 118 L 51.5 116 Z " /><path fill="rgb(228,236,253)" stroke="rgb(228,236,253)" stroke-width="1" opacity="0.050980392156862744" d="M 142.5 117 L 139.5 121 L 142.5 117 Z " /><path fill="rgb(228,236,253)" stroke="rgb(228,236,253)" stroke-width="1" opacity="0.050980392156862744" d="M 59.5 122 L 65 122.5 L 59.5 123 L 59.5 122 Z " /><path fill="rgb(228,236,253)" stroke="rgb(228,236,253)" stroke-width="1" opacity="0.050980392156862744" d="M 131.5 122 L 135 122.5 L 131.5 123 L 131.5 122 Z " /></svg>