<svg width="438" height="432" version="1.1" xmlns="http://www.w3.org/2000/svg" desc="Created with imagetracer.js version 1.2.6" ><path fill="rgb(0,0,0)" stroke="rgb(0,0,0)" stroke-width="1" opacity="0" d="M 0 0 L 438 0 L 438 432 L 0 432 L 0 0 Z M 155 65 L 146 69 L 87 128 L 84 135 Q 84 141 87 145 L 99 156 L 103 158 Q 112 160 116 156 L 118 154 L 142 179 L 46 263 Q 31 272 26 291 L 26 306 L 33 320 Q 41 330 57 333 Q 74 334 83 326 L 103 304 Q 102 301 105 302 L 105 301 L 175 221 L 180 216 L 206 243 L 201 252 Q 201 261 207 265 Q 206 267 209 266 L 209 268 L 211 268 L 211 270 L 222 276 Q 229 277 233 273 L 292 214 L 294 210 Q 296 199 291 196 L 277 183 Q 266 181 263 186 L 262 187 L 173 99 L 177 93 Q 179 84 176 81 L 163 67 L 155 65 Z M 203 298 L 201 299 L 195 306 L 195 332 L 197 336 L 203 339 L 340 339 L 342 338 Q 346 335 347 330 L 347 308 L 345 303 L 340 298 L 203 298 Z " /><path fill="rgb(154,106,90)" stroke="rgb(154,106,90)" stroke-width="1" opacity="0.9686274509803922" d="M 154.5 65 L 162.5 67 L 176 80.5 Q 178.7 84.3 177 92.5 L 173 98.5 L 261.5 187 L 262.5 186 Q 266.3 181.3 276.5 183 L 291 195.5 Q 295.7 199.3 294 209.5 L 292 213.5 L 232.5 273 Q 229 276.5 221.5 276 L 211 270 L 211 268 L 209 268 L 209 266 Q 206.3 267.1 207 264.5 Q 200.9 261.1 201 251.5 L 206 242.5 L 179.5 216 L 175 220.5 L 105 300.5 L 105 302 Q 102.3 300.9 103 303.5 L 82.5 326 Q 73.7 333.7 56.5 333 Q 40.9 330.1 33 319.5 L 26 305.5 L 26 290.5 Q 31.5 272.5 45.5 263 L 142 178.5 L 117.5 154 L 115.5 156 Q 111.5 159.5 102.5 158 L 98.5 156 L 87 144.5 Q 83.7 141.3 84 134.5 L 87 127.5 L 145.5 69 L 154.5 65 Z " /><path fill="rgb(154,106,90)" stroke="rgb(154,106,90)" stroke-width="1" opacity="0.9686274509803922" d="M 202.5 298 L 339.5 298 L 345 302.5 L 347 307.5 L 347 329.5 Q 345.8 335.3 341.5 338 L 339.5 339 L 202.5 339 L 197 335.5 L 195 331.5 L 195 305.5 L 200.5 299 L 202.5 298 Z " /></svg>