<svg width="168" height="166" version="1.1" xmlns="http://www.w3.org/2000/svg" desc="Created with imagetracer.js version 1.2.6" ><path fill="rgb(254,218,222)" stroke="rgb(254,218,222)" stroke-width="1" opacity="0.5333333333333333" d="M 72.5 22 L 78 22.5 L 72.5 23 L 72.5 22 Z " /><path fill="rgb(254,218,222)" stroke="rgb(254,218,222)" stroke-width="1" opacity="0.5333333333333333" d="M 88.5 22 L 94 22.5 L 88.5 23 L 88.5 22 Z " /><path fill="rgb(254,218,222)" stroke="rgb(254,218,222)" stroke-width="1" opacity="0.5333333333333333" d="M 68.5 23 L 71 23.5 L 68.5 24 L 68.5 23 Z " /><path fill="rgb(254,218,222)" stroke="rgb(254,218,222)" stroke-width="1" opacity="0.5333333333333333" d="M 95.5 23 L 98.5 23 L 109 27.5 L 107.5 28 Q 103.2 24.3 95.5 24 L 95.5 23 Z " /><path fill="rgb(254,218,222)" stroke="rgb(254,218,222)" stroke-width="1" opacity="0.5333333333333333" d="M 64.5 24 L 67 24.5 L 59.5 27 L 59.5 26 L 64.5 24 Z " /><path fill="rgb(254,218,222)" stroke="rgb(254,218,222)" stroke-width="1" opacity="0.5333333333333333" d="M 53.5 29 L 52.5 31 L 50.5 32 L 51.5 30 L 53.5 29 Z " /><path fill="rgb(254,218,222)" stroke="rgb(254,218,222)" stroke-width="1" opacity="0.5333333333333333" d="M 112.5 29 L 116 31.5 L 114.5 31 L 112.5 29 Z " /><path fill="rgb(254,218,222)" stroke="rgb(254,218,222)" stroke-width="1" opacity="0.5333333333333333" d="M 48.5 32 L 46.5 35 L 35 45.5 L 32.5 49 L 34 46.5 L 45.5 34 L 48.5 32 Z " /><path fill="rgb(254,218,222)" stroke="rgb(254,218,222)" stroke-width="1" opacity="0.5333333333333333" d="M 117.5 32 L 131 44.5 L 120.5 35 L 117.5 32 Z " /><path fill="rgb(254,218,222)" stroke="rgb(254,218,222)" stroke-width="1" opacity="0.5333333333333333" d="M 131.5 46 L 133.5 49 L 131.5 46 Z " /><path fill="rgb(254,218,222)" stroke="rgb(254,218,222)" stroke-width="1" opacity="0.5333333333333333" d="M 31.5 50 L 31 51.5 L 29.5 54 L 30 52.5 L 31.5 50 Z " /><path fill="rgb(254,218,222)" stroke="rgb(254,218,222)" stroke-width="1" opacity="0.5333333333333333" d="M 134.5 50 L 137 53.5 L 135 52.5 L 134.5 50 Z " /><path fill="rgb(254,218,222)" stroke="rgb(254,218,222)" stroke-width="1" opacity="0.5333333333333333" d="M 28.5 55 L 29 56.5 L 26.5 61 L 26 59.5 L 28.5 55 Z " /><path fill="rgb(254,218,222)" stroke="rgb(254,218,222)" stroke-width="1" opacity="0.5333333333333333" d="M 138.5 57 L 140 60.5 L 139 60.5 L 138.5 57 Z " /><path fill="rgb(254,218,222)" stroke="rgb(254,218,222)" stroke-width="1" opacity="0.5333333333333333" d="M 23.5 68 L 24 71.5 L 23 71.5 L 23.5 68 Z " /><path fill="rgb(254,218,222)" stroke="rgb(254,218,222)" stroke-width="1" opacity="0.5333333333333333" d="M 142.5 69 L 143 71.5 L 142 71.5 L 142.5 69 Z " /><path fill="rgb(254,218,222)" stroke="rgb(254,218,222)" stroke-width="1" opacity="0.5333333333333333" d="M 22.5 73 L 23 80.5 L 22 80.5 L 22.5 73 Z " /><path fill="rgb(254,218,222)" stroke="rgb(254,218,222)" stroke-width="1" opacity="0.5333333333333333" d="M 143.5 74 L 144 78.5 L 143 78.5 L 143.5 74 Z " /><path fill="rgb(254,218,222)" stroke="rgb(254,218,222)" stroke-width="1" opacity="0.5333333333333333" d="M 22.5 85 L 23 91.5 L 22 91.5 L 22.5 85 Z " /><path fill="rgb(254,218,222)" stroke="rgb(254,218,222)" stroke-width="1" opacity="0.5333333333333333" d="M 143.5 86 L 144 91.5 L 143 91.5 L 143.5 86 Z " /><path fill="rgb(254,218,222)" stroke="rgb(254,218,222)" stroke-width="1" opacity="0.5333333333333333" d="M 23.5 94 L 24 96.5 L 23 96.5 L 23.5 94 Z " /><path fill="rgb(254,218,222)" stroke="rgb(254,218,222)" stroke-width="1" opacity="0.5333333333333333" d="M 142.5 94 L 143 96.5 L 142 96.5 L 142.5 94 Z " /><path fill="rgb(254,218,222)" stroke="rgb(254,218,222)" stroke-width="1" opacity="0.5333333333333333" d="M 24.5 98 L 25 100.5 L 24 100.5 L 24.5 98 Z " /><path fill="rgb(254,218,222)" stroke="rgb(254,218,222)" stroke-width="1" opacity="0.5333333333333333" d="M 141.5 98 L 142 100.5 L 141 100.5 L 141.5 98 Z " /><path fill="rgb(254,218,222)" stroke="rgb(254,218,222)" stroke-width="1" opacity="0.5333333333333333" d="M 26.5 105 L 31 113.5 L 29 112.5 L 26.5 105 Z " /><path fill="rgb(254,218,222)" stroke="rgb(254,218,222)" stroke-width="1" opacity="0.5333333333333333" d="M 138.5 107 L 139 108.5 L 135.5 114 L 136 112.5 L 138.5 107 Z " /><path fill="rgb(254,218,222)" stroke="rgb(254,218,222)" stroke-width="1" opacity="0.5333333333333333" d="M 31.5 115 L 32.5 117 L 31.5 115 Z " /><path fill="rgb(254,218,222)" stroke="rgb(254,218,222)" stroke-width="1" opacity="0.5333333333333333" d="M 134.5 115 L 133.5 117 L 134.5 115 Z " /><path fill="rgb(254,218,222)" stroke="rgb(254,218,222)" stroke-width="1" opacity="0.5333333333333333" d="M 33.5 118 L 35.5 121 L 33.5 118 Z " /><path fill="rgb(254,218,222)" stroke="rgb(254,218,222)" stroke-width="1" opacity="0.5333333333333333" d="M 132.5 118 L 130.5 121 L 132.5 118 Z " /><path fill="rgb(254,218,222)" stroke="rgb(254,218,222)" stroke-width="1" opacity="0.5333333333333333" d="M 36.5 122 L 43.5 130 L 36.5 122 Z " /><path fill="rgb(254,218,222)" stroke="rgb(254,218,222)" stroke-width="1" opacity="0.5333333333333333" d="M 129.5 122 L 122.5 130 L 129.5 122 Z " /><path fill="rgb(254,218,222)" stroke="rgb(254,218,222)" stroke-width="1" opacity="0.5333333333333333" d="M 45.5 130 L 47.5 133 L 45.5 130 Z " /><path fill="rgb(254,218,222)" stroke="rgb(254,218,222)" stroke-width="1" opacity="0.5333333333333333" d="M 120.5 130 L 118.5 133 L 120.5 130 Z " /><path fill="rgb(254,218,222)" stroke="rgb(254,218,222)" stroke-width="1" opacity="0.5333333333333333" d="M 49.5 133 L 50.5 135 L 49.5 133 Z " /><path fill="rgb(254,218,222)" stroke="rgb(254,218,222)" stroke-width="1" opacity="0.5333333333333333" d="M 116.5 133 L 115.5 135 L 116.5 133 Z " /><path fill="rgb(254,218,222)" stroke="rgb(254,218,222)" stroke-width="1" opacity="0.5333333333333333" d="M 111.5 136 L 110.5 138 L 109 137.5 L 111.5 136 Z " /><path fill="rgb(254,218,222)" stroke="rgb(254,218,222)" stroke-width="1" opacity="0.5333333333333333" d="M 104.5 139 L 106 139.5 L 101.5 141 L 101.5 140 L 104.5 139 Z " /><path fill="rgb(254,218,222)" stroke="rgb(254,218,222)" stroke-width="1" opacity="0.5333333333333333" d="M 69.5 142 L 72 142.5 L 69.5 143 L 69.5 142 Z " /><path fill="rgb(254,218,222)" stroke="rgb(254,218,222)" stroke-width="1" opacity="0.5333333333333333" d="M 75.5 143 L 81 143.5 L 75.5 144 L 75.5 143 Z " /><path fill="rgb(254,218,222)" stroke="rgb(254,218,222)" stroke-width="1" opacity="0.5333333333333333" d="M 84.5 143 L 91 143.5 L 84.5 144 L 84.5 143 Z " /><path fill="rgb(254,196,202)" stroke="rgb(254,196,202)" stroke-width="1" opacity="0.996078431372549" d="M 82.5 22 L 85 22.5 L 82.5 23 L 82.5 22 Z " /><path fill="rgb(254,196,202)" stroke="rgb(254,196,202)" stroke-width="1" opacity="0.996078431372549" d="M 61.5 26 L 64 27.5 L 62.5 27 L 61.5 26 Z " /><path fill="rgb(254,196,202)" stroke="rgb(254,196,202)" stroke-width="1" opacity="0.996078431372549" d="M 70.5 27 L 69.5 29 L 68 28.5 L 70.5 27 Z " /><path fill="rgb(254,196,202)" stroke="rgb(254,196,202)" stroke-width="1" opacity="0.996078431372549" d="M 57.5 28 L 56.5 30 L 55 29.5 L 57.5 28 Z " /><path fill="rgb(254,196,202)" stroke="rgb(254,196,202)" stroke-width="1" opacity="0.996078431372549" d="M 45.5 35 L 44.5 37 L 45.5 35 Z " /><path fill="rgb(254,196,202)" stroke="rgb(254,196,202)" stroke-width="1" opacity="0.996078431372549" d="M 117.5 35 L 121 35.5 L 117.5 36 L 117.5 35 Z " /><path fill="rgb(254,196,202)" stroke="rgb(254,196,202)" stroke-width="1" opacity="0.996078431372549" d="M 114.5 36 L 115.5 38 L 114.5 36 Z " /><path fill="rgb(254,196,202)" stroke="rgb(254,196,202)" stroke-width="1" opacity="0.996078431372549" d="M 123.5 38 L 125 40.5 L 123 39.5 L 123.5 38 Z " /><path fill="rgb(254,196,202)" stroke="rgb(254,196,202)" stroke-width="1" opacity="0.996078431372549" d="M 124.5 42 L 127 42.5 Q 124.9 45.8 124.5 42 Z " /><path fill="rgb(254,196,202)" stroke="rgb(254,196,202)" stroke-width="1" opacity="0.996078431372549" d="M 128.5 43 L 129.5 45 L 128.5 43 Z " /><path fill="rgb(254,196,202)" stroke="rgb(254,196,202)" stroke-width="1" opacity="0.996078431372549" d="M 32.5 50 L 32 51.5 L 31.5 53 L 31 51.5 L 32.5 50 Z " /><path fill="rgb(254,196,202)" stroke="rgb(254,196,202)" stroke-width="1" opacity="0.996078431372549" d="M 35.5 51 L 33.5 54 L 35.5 51 Z " /><path fill="rgb(254,196,202)" stroke="rgb(254,196,202)" stroke-width="1" opacity="0.996078431372549" d="M 76.5 53 L 77.5 55 L 76.5 53 Z " /><path fill="rgb(254,196,202)" stroke="rgb(254,196,202)" stroke-width="1" opacity="0.996078431372549" d="M 90.5 56 L 92.5 59 L 90.5 56 Z " /><path fill="rgb(254,196,202)" stroke="rgb(254,196,202)" stroke-width="1" opacity="0.996078431372549" d="M 78.5 57 L 79 60.5 L 78 60.5 L 78.5 57 Z " /><path fill="rgb(254,196,202)" stroke="rgb(254,196,202)" stroke-width="1" opacity="0.996078431372549" d="M 138.5 59 L 140 61.5 L 138 60.5 L 138.5 59 Z " /><path fill="rgb(254,196,202)" stroke="rgb(254,196,202)" stroke-width="1" opacity="0.996078431372549" d="M 95.5 60 L 94.5 62 L 95.5 60 Z " /><path fill="rgb(254,196,202)" stroke="rgb(254,196,202)" stroke-width="1" opacity="0.996078431372549" d="M 65.5 61 L 66.5 63 L 64 64.5 L 62.5 67 L 63 65.5 L 65.5 61 Z " /><path fill="rgb(254,196,202)" stroke="rgb(254,196,202)" stroke-width="1" opacity="0.996078431372549" d="M 66 64 L 68 64.5 L 66 65.5 L 66 64 Z " /><path fill="rgb(254,196,202)" stroke="rgb(254,196,202)" stroke-width="1" opacity="0.996078431372549" d="M 74.5 65 L 77 65.5 L 72.5 69 L 72.5 68 L 75 66.5 L 74.5 65 Z " /><path fill="rgb(254,196,202)" stroke="rgb(254,196,202)" stroke-width="1" opacity="0.996078431372549" d="M 25.5 66 L 24.5 68 L 25.5 66 Z " /><path fill="rgb(254,196,202)" stroke="rgb(254,196,202)" stroke-width="1" opacity="0.996078431372549" d="M 104.5 66 Q 107.3 67.3 105 68.5 L 103.5 71 L 104 69.5 L 105 67.5 L 104.5 66 Z " /><path fill="rgb(254,196,202)" stroke="rgb(254,196,202)" stroke-width="1" opacity="0.996078431372549" d="M 140.5 66 L 142 68.5 L 141 68.5 L 140.5 66 Z " /><path fill="rgb(254,196,202)" stroke="rgb(254,196,202)" stroke-width="1" opacity="0.996078431372549" d="M 67.5 67 L 70 68.5 L 68.5 69 L 67.5 67 Z " /><path fill="rgb(254,196,202)" stroke="rgb(254,196,202)" stroke-width="1" opacity="0.996078431372549" d="M 104.5 72 L 103.5 74 L 101 73.5 L 104.5 72 Z " /><path fill="rgb(254,196,202)" stroke="rgb(254,196,202)" stroke-width="1" opacity="0.996078431372549" d="M 108.5 73 L 110 76.5 L 109 76.5 L 108.5 73 Z " /><path fill="rgb(254,196,202)" stroke="rgb(254,196,202)" stroke-width="1" opacity="0.996078431372549" d="M 58.5 75 L 58 76.5 L 57.5 79 L 57 76.5 L 58.5 75 Z " /><path fill="rgb(254,196,202)" stroke="rgb(254,196,202)" stroke-width="1" opacity="0.996078431372549" d="M 110.5 79 L 111 81.5 L 110 81.5 L 110.5 79 Z " /><path fill="rgb(254,196,202)" stroke="rgb(254,196,202)" stroke-width="1" opacity="0.996078431372549" d="M 56.5 81 L 57 92.5 L 56 92.5 L 56.5 81 Z " /><path fill="rgb(254,196,202)" stroke="rgb(254,196,202)" stroke-width="1" opacity="0.996078431372549" d="M 110.5 90 L 111 92.5 L 110 92.5 L 110.5 90 Z " /><path fill="rgb(254,196,202)" stroke="rgb(254,196,202)" stroke-width="1" opacity="0.996078431372549" d="M 24 96 L 26 96.5 L 24 97.5 L 24 96 Z " /><path fill="rgb(254,196,202)" stroke="rgb(254,196,202)" stroke-width="1" opacity="0.996078431372549" d="M 27.5 100 L 28.5 102 L 27.5 100 Z " /><path fill="rgb(254,196,202)" stroke="rgb(254,196,202)" stroke-width="1" opacity="0.996078431372549" d="M 107.5 100 L 108 102 L 106 101.5 L 107.5 100 Z " /><path fill="rgb(254,196,202)" stroke="rgb(254,196,202)" stroke-width="1" opacity="0.996078431372549" d="M 60.5 101 Q 63.5 102.5 60.5 104 Q 57.5 102.5 60.5 101 Z " /><path fill="rgb(254,196,202)" stroke="rgb(254,196,202)" stroke-width="1" opacity="0.996078431372549" d="M 105.5 103 L 101.5 108 L 105.5 103 Z " /><path fill="rgb(254,196,202)" stroke="rgb(254,196,202)" stroke-width="1" opacity="0.996078431372549" d="M 62.5 104 L 64.5 107 L 62 106 L 62.5 104 Z " /><path fill="rgb(254,196,202)" stroke="rgb(254,196,202)" stroke-width="1" opacity="0.996078431372549" d="M 58.5 108 L 57.5 110 L 58.5 108 Z " /><path fill="rgb(254,196,202)" stroke="rgb(254,196,202)" stroke-width="1" opacity="0.996078431372549" d="M 67.5 108 L 75 112.5 L 73.5 113 Q 68.5 111.5 67.5 108 Z " /><path fill="rgb(254,196,202)" stroke="rgb(254,196,202)" stroke-width="1" opacity="0.996078431372549" d="M 98.5 109 L 99 111 L 97 110.5 L 98.5 109 Z " /><path fill="rgb(254,196,202)" stroke="rgb(254,196,202)" stroke-width="1" opacity="0.996078431372549" d="M 29.5 110 L 33 115.5 L 31 114.5 L 29.5 110 Z " /><path fill="rgb(254,196,202)" stroke="rgb(254,196,202)" stroke-width="1" opacity="0.996078431372549" d="M 76.5 113 L 79 113.5 L 76.5 114 L 76.5 113 Z " /><path fill="rgb(254,196,202)" stroke="rgb(254,196,202)" stroke-width="1" opacity="0.996078431372549" d="M 88.5 113 L 91 113.5 L 88.5 114 L 88.5 113 Z " /><path fill="rgb(254,196,202)" stroke="rgb(254,196,202)" stroke-width="1" opacity="0.996078431372549" d="M 120.5 122 L 121.5 124 L 120.5 122 Z " /><path fill="rgb(254,196,202)" stroke="rgb(254,196,202)" stroke-width="1" opacity="0.996078431372549" d="M 73.5 142 L 76 142.5 L 73.5 143 L 73.5 142 Z " /><path fill="rgb(0,0,0)" stroke="rgb(0,0,0)" stroke-width="1" opacity="0" d="M 0 0 L 168 0 L 168 166 L 0 166 L 0 0 Z M 73 22 Q 56 25 46 34 Q 27 47 22 74 L 22 92 L 24 101 Q 28 114 36 123 Q 50 139 76 144 L 91 144 L 104 141 L 123 130 Q 139 117 144 92 Q 146 60 131 45 Q 121 32 105 25 L 94 22 L 73 22 Z " /><path fill="rgb(255,197,203)" stroke="rgb(255,197,203)" stroke-width="1" opacity="1" d="M 78.5 22 L 84.5 23 L 87.5 22 Q 89 24.5 94.5 23 L 97.5 25 L 99.5 25 Q 109 26.9 115 31 Q 113.8 34 117.5 33 L 118.5 35 L 117 35.5 Q 121.6 34.9 123 37.5 L 123.5 40 L 124.5 39 L 128 42.5 L 129.5 45 Q 131.8 44.3 131 46.5 Q 135 48.8 135 54 Q 137.7 52.9 137 55.5 L 138 58.5 L 141 65.5 L 141 67.5 L 144 80.5 L 143 82.5 L 144 85.5 L 140 104.5 L 133 118 Q 130.3 116.9 131 119.5 L 121.5 130 L 110.5 137 L 109 136.5 Q 109.8 138.8 107.5 138 L 103.5 140 L 102.5 138 L 100.5 141 L 89.5 143 L 87.5 143 L 82.5 144 L 73.5 142 L 71.5 142 L 64.5 141 L 60.5 138 L 53 136 L 52.5 134 Q 51.3 136.3 50 133.5 L 49.5 132 L 48.5 133 L 45.5 130 L 42 127.5 Q 42.8 125.3 40.5 126 L 36 121.5 L 26 104.5 L 25 97.5 L 25.5 96 Q 23.3 96.8 24 94.5 L 22 84.5 L 23 82.5 L 23 80.5 Q 21.8 72.8 25 69.5 L 24 68.5 L 26 64.5 L 30.5 53 Q 32.8 53.8 32 51.5 L 32.5 49 Q 34.8 49.8 34 47.5 L 36.5 44 Q 38.8 44.8 38 42.5 L 49.5 32 L 53 32 L 54.5 29 L 56.5 30 L 56.5 28 L 58 28.5 Q 57.1 25.1 62.5 27 L 64.5 25 L 69.5 24 L 71 24.5 Q 70.5 21.5 77.5 23 L 78.5 22 Z M 76 51 L 78 56 L 78 63 L 77 63 L 77 65 L 72 69 L 67 67 L 68 65 L 67 64 L 67 63 Q 68 60 65 61 L 57 77 L 56 82 L 56 93 L 62 104 L 62 106 L 74 113 L 84 115 L 91 114 L 97 111 Q 100 112 99 110 L 106 104 Q 105 101 108 102 L 111 93 L 111 80 L 106 68 L 104 67 L 105 72 Q 104 74 100 73 L 93 59 L 82 51 L 76 51 Z " /><path fill="rgb(247,65,91)" stroke="rgb(247,65,91)" stroke-width="1" opacity="1" d="M 76 51 Q 88.3 52 94 60.5 L 99 71.5 L 101.5 74 L 105 72.5 L 104 67.5 L 106 68.5 L 110 77.5 L 111 89.5 L 108 99.5 L 99.5 109 Q 92.7 114.7 79.5 114 Q 68.3 111.3 62 103.5 Q 54.7 96.3 57 79.5 Q 59.5 69.5 65.5 63 L 68.5 69 Q 75.8 70.3 77 65.5 L 79 57.5 L 76 51 Z " /></svg>